<?xml version="1.0" encoding="UTF-8"?>
<svg width="26px" height="26px" viewBox="0 0 26 26" version="1.1" xmlns="http://www.w3.org/2000/svg" xmlns:xlink="http://www.w3.org/1999/xlink">
    <!-- Generator: Sketch 41.1 (35376) - http://www.bohemiancoding.com/sketch -->
    <title>icon-Medium-light</title>
    <desc>Created with Sketch.</desc>
    <defs></defs>
    <g id="Page-1" stroke="none" stroke-width="1" fill="none" fill-rule="evenodd">
        <g id="icon-Medium-light" fill="#FFFFFF">
            <g id="Group-2" transform="translate(4.000000, 6.000000)">
                <path d="M17.8794657,2.79167344 C17.8759947,2.78891742 17.8732179,2.78530015 17.8688791,2.78323314 L17.8626312,2.78013262 L12.3836231,0.0611491374 C12.3466566,0.0427182705 12.3077812,0.0303161921 12.2683851,0.0203256287 C12.218923,0.00775129912 12.1684197,0 12.1177427,0 C11.9079195,0 11.6991375,0.104556413 11.5859822,0.286798067 L8.43169093,5.37440629 L12.390218,11.7587208 L17.8963002,2.87848799 C17.914523,2.8488608 17.9058455,2.81234357 17.8794657,2.79167344" id="Fill-53"></path>
                <polyline id="Fill-54" points="6.89865622 4.21584546 6.89865622 10.0070994 12.0850573 12.5808752 6.89865622 4.21584546"></polyline>
                <path d="M12.6475364,12.7236714 L16.9167199,14.8421875 C17.472257,15.1179615 17.9226221,14.9248681 17.9226221,14.4112153 L17.9226221,4.21584546 L12.6475364,12.7236714" id="Fill-55"></path>
                <path d="M6.02170251,2.72621802 L0.670601448,0.0706229475 C0.573933487,0.0227371442 0.481951404,0 0.398646877,0 C0.164352892,0 0,0.18000239 0,0.481958552 L0,11.9487137 C0,12.2556652 0.226310634,12.619115 0.502951086,12.7563991 L5.21607832,15.0952244 C5.33686988,15.1551678 5.45193425,15.1835892 5.55589137,15.1835892 C5.8488456,15.1835892 6.05433012,14.9586293 6.05433012,14.5810549 L6.05433012,2.77841011 C6.05433012,2.75636197 6.04166089,2.73603634 6.02170251,2.72621802" id="Fill-56"></path>
            </g>
        </g>
    </g>
</svg>