<?xml version="1.0" encoding="UTF-8"?>
<svg width="26px" height="26px" viewBox="0 0 26 26" version="1.1" xmlns="http://www.w3.org/2000/svg" xmlns:xlink="http://www.w3.org/1999/xlink">
    <!-- Generator: Sketch 41.1 (35376) - http://www.bohemiancoding.com/sketch -->
    <title>icon-home</title>
    <desc>Created with Sketch.</desc>
    <defs></defs>
    <g id="Page-1" stroke="none" stroke-width="1" fill="none" fill-rule="evenodd">
        <g id="icon-home" stroke="#000000" stroke-width="0.15" fill="#000000">
            <path d="M4.06313215,14.1438333 L5.07476886,14.1438333 C5.30341884,14.1438333 5.48968491,14.3149983 5.48968491,14.525111 L5.48968491,20.9340622 C5.48968491,21.5213529 6.0105607,22 6.64966526,22 L9.88980268,22 C10.5289072,22 11.049783,21.5213529 11.049783,20.9340622 L11.049783,17.6327298 C11.049783,17.3652204 11.2862406,17.147933 11.5784664,17.147933 L14.4215336,17.147933 C14.7126441,17.147933 14.9491016,17.3652204 14.9491016,17.6327298 L14.9491016,20.9340622 C14.9491016,21.5213529 15.4699774,22 16.1090819,22 L19.3492194,22 C19.9883239,22 20.5091997,21.5213529 20.5091997,20.9340622 L20.5091997,14.525111 C20.5091997,14.3149983 20.6954658,14.1438333 20.9241158,14.1438333 L21.9368678,14.1438333 C22.3696297,14.1438333 22.7432773,13.9162965 22.9128129,13.5503929 C23.0823484,13.1844892 23.0009267,12.7786129 22.7008934,12.4926546 L14.3791497,4.54014349 C14.0155405,4.19166382 13.5247796,4 12.9994423,4 C12.4741051,4 11.9833441,4.19166382 11.6197349,4.54014349 L3.29910664,12.4926546 C2.99907326,12.7796379 2.91765156,13.1844892 3.08718715,13.5503929 C3.25672274,13.9162965 3.63037025,14.1438333 4.06313215,14.1438333 Z M3.75417585,12.8944312 L12.0748041,4.94192005 C12.3190692,4.70925863 12.6469867,4.5811411 12.9994423,4.5811411 C13.3518979,4.5811411 13.6798154,4.70925863 13.9240805,4.94294499 L22.2458242,12.8954561 C22.3685144,13.0133242 22.40086,13.1732149 22.3317073,13.3238811 C22.2614393,13.4745473 22.114211,13.5637171 21.9368678,13.5637171 L20.9241158,13.5637171 C20.3474717,13.5637171 19.8779027,13.9952169 19.8779027,14.525111 L19.8779027,20.9340622 C19.8779027,21.2015716 19.6414452,21.4188589 19.3503347,21.4188589 L16.1101973,21.4188589 C15.8190869,21.4188589 15.581514,21.2015716 15.581514,20.9340622 L15.581514,17.6327298 C15.581514,17.045439 15.0617535,16.5667919 14.4215336,16.5667919 L11.5784664,16.5667919 C10.9393618,16.5667919 10.418486,17.0444141 10.418486,17.6327298 L10.418486,20.9340622 C10.418486,21.2015716 10.1820285,21.4188589 9.89091805,21.4188589 L6.64966526,21.4188589 C6.35855481,21.4188589 6.12098191,21.2015716 6.12098191,20.9340622 L6.12098191,14.525111 C6.12098191,13.9952169 5.65141294,13.5637171 5.07476886,13.5637171 L4.06313215,13.5637171 C3.885789,13.5637171 3.73744536,13.4735224 3.66829269,13.3238811 C3.59802465,13.17219 3.63037025,13.0122993 3.75417585,12.8944312 Z" id="Shape"></path>
        </g>
    </g>
</svg>