<?xml version="1.0" encoding="UTF-8"?>
<svg width="26px" height="26px" viewBox="0 0 26 26" version="1.1" xmlns="http://www.w3.org/2000/svg" xmlns:xlink="http://www.w3.org/1999/xlink">
    <!-- Generator: Sketch 41.1 (35376) - http://www.bohemiancoding.com/sketch -->
    <title>icon-phone</title>
    <desc>Created with Sketch.</desc>
    <defs></defs>
    <g id="Page-1" stroke="none" stroke-width="1" fill="none" fill-rule="evenodd">
        <g id="icon-phone" fill="#FFFFFF">
            <path d="M9.971,10.166 C10.426,9.711 10.677,9.103 10.677,8.456 C10.677,7.808 10.426,7.201 9.971,6.746 L8.543,5.318 C8.088,4.863 7.48,4.612 6.833,4.612 C6.185,4.612 5.578,4.863 5.123,5.318 L4.634,5.807 L4.634,5.807 L4.418,6.023 C2.867,7.574 2.631,11.953 8.339,17.661 C11.988,21.31 15.094,22.53 17.265,22.53 C18.49,22.53 19.417,22.142 19.976,21.582 L20.681,20.877 C21.624,19.934 21.624,18.4 20.681,17.456 L19.253,16.028 C18.31,15.085 16.776,15.086 15.832,16.028 L15.14,16.72 C14.8,17.06 14.346,17.247 13.862,17.247 C13.378,17.247 12.924,17.06 12.584,16.72 L9.277,13.413 C8.573,12.708 8.573,11.561 9.277,10.857 L9.971,10.166 Z M8.847,13.847 L12.154,17.154 C12.609,17.609 13.216,17.86 13.864,17.86 C14.512,17.86 15.119,17.609 15.574,17.154 L16.266,16.462 C16.971,15.758 18.117,15.757 18.822,16.462 L20.25,17.89 C20.954,18.595 20.954,19.742 20.25,20.446 L19.552,21.143 L19.437,21.251 C18.008,22.478 13.986,22.444 8.771,17.23 C5.657,14.116 4.592,11.66 4.247,10.148 C3.824,8.293 4.281,7.024 4.85,6.455 L5.555,5.75 C5.895,5.41 6.349,5.223 6.833,5.223 C7.317,5.223 7.771,5.41 8.111,5.75 L9.539,7.178 C9.879,7.518 10.066,7.972 10.066,8.456 C10.066,8.94 9.878,9.394 9.538,9.734 L8.847,10.426 C7.904,11.369 7.904,12.903 8.847,13.847 Z" id="Shape"></path>
            <path d="M22.215,13.26 L22.222,13.26 C22.388,13.26 22.524,13.128 22.528,12.962 C22.589,10.367 21.635,7.951 19.842,6.158 C18.049,4.366 15.631,3.417 13.039,3.472 C12.87,3.476 12.737,3.616 12.741,3.785 C12.745,3.954 12.884,4.08 13.054,4.083 C15.477,4.026 17.737,4.916 19.411,6.59 C21.084,8.263 21.975,10.521 21.918,12.947 C21.912,13.116 22.046,13.256 22.215,13.26 Z" id="Shape"></path>
            <path d="M12.838,7.13 C14.491,7.088 16.026,7.697 17.165,8.836 C18.304,9.975 18.909,11.511 18.871,13.162 C18.867,13.331 19.001,13.471 19.169,13.475 L19.176,13.475 C19.342,13.475 19.478,13.343 19.482,13.177 C19.525,11.357 18.856,9.662 17.597,8.404 C16.339,7.146 14.633,6.473 12.824,6.519 C12.655,6.523 12.522,6.663 12.526,6.832 C12.529,7 12.673,7.126 12.838,7.13 Z" id="Shape"></path>
            <path d="M12.817,10.105 C13.666,10.082 14.444,10.395 15.026,10.975 C15.607,11.556 15.916,12.34 15.896,13.184 C15.892,13.353 16.026,13.493 16.194,13.497 L16.201,13.497 C16.367,13.497 16.503,13.365 16.507,13.199 C16.531,12.187 16.158,11.244 15.458,10.544 C14.758,9.844 13.824,9.476 12.803,9.495 C12.634,9.499 12.501,9.639 12.505,9.808 C12.508,9.974 12.652,10.108 12.817,10.105 Z" id="Shape"></path>
        </g>
    </g>
</svg>