<?xml version="1.0" encoding="UTF-8"?>
<svg width="26px" height="26px" viewBox="0 0 26 26" version="1.1" xmlns="http://www.w3.org/2000/svg" xmlns:xlink="http://www.w3.org/1999/xlink">
    <!-- Generator: Sketch 41.1 (35376) - http://www.bohemiancoding.com/sketch -->
    <title>icon-portifolio</title>
    <desc>Created with Sketch.</desc>
    <defs></defs>
    <g id="Page-1" stroke="none" stroke-width="1" fill="none" fill-rule="evenodd">
        <g id="icon-portifolio" fill="#000000">
            <g id="Group" transform="translate(5.000000, 3.000000)">
                <path d="M2.177,0.239 C1.179,0.239 0.366,1.02092739 0.366,1.98196623 L0.366,18.2560708 C0.366,19.2171096 1.178,20 2.177,20 L13.823,20 C14.821,20 15.633,19.2180726 15.633,18.2560708 L15.633,6.26138166 C15.633,5.79626967 15.445,5.35812071 15.103,5.02878676 L10.661,0.750334292 C10.319,0.421000341 9.864,0.239962965 9.381,0.239962965 L2.177,0.239962965 L2.177,0.239 Z M10.328,1.34448355 L14.486,5.34849106 L11.171,5.34849106 C10.706,5.34849106 10.328,4.98449038 10.328,4.53671176 L10.328,1.34448355 L10.328,1.34448355 Z M11.171,5.99656635 L14.924,5.99656635 C14.946,6.08227021 14.961,6.1699 14.961,6.26138166 L14.961,18.2570338 C14.961,18.8617756 14.451,19.3528877 13.823,19.3528877 L2.177,19.3528877 C1.549,19.3528877 1.039,18.8608127 1.039,18.2570338 L1.039,1.98292919 C1.039,1.37818732 1.55,0.887075289 2.177,0.887075289 L9.381,0.887075289 C9.475,0.887075289 9.566,0.90151976 9.655,0.922704985 L9.655,4.53671176 C9.655,5.3417503 10.335,5.99656635 11.171,5.99656635 Z" id="Shape"></path>
                <path d="M12.262,11.562 L3.738,11.562 C3.552,11.562 3.402,11.712 3.402,11.898 C3.402,12.084 3.552,12.234 3.738,12.234 L12.261,12.234 C12.447,12.234 12.597,12.084 12.597,11.898 C12.598,11.712 12.448,11.562 12.262,11.562 Z" id="Shape"></path>
                <path d="M3.402,8.55 C3.402,8.736 3.552,8.886 3.738,8.886 L12.261,8.886 C12.447,8.886 12.597,8.736 12.597,8.55 C12.597,8.364 12.447,8.214 12.261,8.214 L3.738,8.214 C3.553,8.214 3.402,8.365 3.402,8.55 Z" id="Shape"></path>
                <path d="M12.262,14.909 L3.738,14.909 C3.552,14.909 3.402,15.059 3.402,15.245 C3.402,15.431 3.552,15.581 3.738,15.581 L12.261,15.581 C12.447,15.581 12.597,15.431 12.597,15.245 C12.597,15.059 12.448,14.909 12.262,14.909 Z" id="Shape"></path>
            </g>
        </g>
    </g>
</svg>