<?xml version="1.0" encoding="UTF-8"?>
<svg width="26px" height="26px" viewBox="0 0 26 26" version="1.1" xmlns="http://www.w3.org/2000/svg" xmlns:xlink="http://www.w3.org/1999/xlink">
    <!-- Generator: Sketch 41.1 (35376) - http://www.bohemiancoding.com/sketch -->
    <title>icon-portifolio</title>
    <desc>Created with Sketch.</desc>
    <defs></defs>
    <g id="Page-1" stroke="none" stroke-width="1" fill="none" fill-rule="evenodd">
        <g id="icon-portifolio" fill="#FFFFFF">
            <path d="M7.177,3.239 C6.179,3.239 5.366,4.02092739 5.366,4.98196623 L5.366,21.2560708 C5.366,22.2171096 6.178,23 7.177,23 L18.823,23 C19.821,23 20.633,22.2180726 20.633,21.2560708 L20.633,9.26138166 C20.633,8.79626967 20.445,8.35812071 20.103,8.02878676 L15.661,3.75033429 C15.319,3.42100034 14.864,3.23996296 14.381,3.23996296 L7.177,3.23996296 L7.177,3.239 Z M15.328,4.34448355 L19.486,8.34849106 L16.171,8.34849106 C15.706,8.34849106 15.328,7.98449038 15.328,7.53671176 L15.328,4.34448355 L15.328,4.34448355 Z M16.171,8.99656635 L19.924,8.99656635 C19.946,9.08227021 19.961,9.1699 19.961,9.26138166 L19.961,21.2570338 C19.961,21.8617756 19.451,22.3528877 18.823,22.3528877 L7.177,22.3528877 C6.549,22.3528877 6.039,21.8608127 6.039,21.2570338 L6.039,4.98292919 C6.039,4.37818732 6.55,3.88707529 7.177,3.88707529 L14.381,3.88707529 C14.475,3.88707529 14.566,3.90151976 14.655,3.92270499 L14.655,7.53671176 C14.655,8.3417503 15.335,8.99656635 16.171,8.99656635 Z" id="Shape"></path>
            <path d="M17.262,14.562 L8.738,14.562 C8.552,14.562 8.402,14.712 8.402,14.898 C8.402,15.084 8.552,15.234 8.738,15.234 L17.261,15.234 C17.447,15.234 17.597,15.084 17.597,14.898 C17.598,14.712 17.448,14.562 17.262,14.562 Z" id="Shape"></path>
            <path d="M8.402,11.55 C8.402,11.736 8.552,11.886 8.738,11.886 L17.261,11.886 C17.447,11.886 17.597,11.736 17.597,11.55 C17.597,11.364 17.447,11.214 17.261,11.214 L8.738,11.214 C8.553,11.214 8.402,11.365 8.402,11.55 Z" id="Shape"></path>
            <path d="M17.262,17.909 L8.738,17.909 C8.552,17.909 8.402,18.059 8.402,18.245 C8.402,18.431 8.552,18.581 8.738,18.581 L17.261,18.581 C17.447,18.581 17.597,18.431 17.597,18.245 C17.597,18.059 17.448,17.909 17.262,17.909 Z" id="Shape"></path>
        </g>
    </g>
</svg>