<?xml version="1.0" encoding="UTF-8"?>
<svg width="26px" height="26px" viewBox="0 0 26 26" version="1.1" xmlns="http://www.w3.org/2000/svg" xmlns:xlink="http://www.w3.org/1999/xlink">
    <!-- Generator: Sketch 41.1 (35376) - http://www.bohemiancoding.com/sketch -->
    <title>icon-about</title>
    <desc>Created with Sketch.</desc>
    <defs></defs>
    <g id="Page-1" stroke="none" stroke-width="1" fill="none" fill-rule="evenodd">
        <g id="icon-about" fill="#FFFFFF">
            <path d="M21.117,19.0732073 C20.811,17.8702073 18.902,17.2822073 17.055,16.7142073 C16.445,16.5262073 15.87,16.3492073 15.415,16.1652073 C15.155,16.0602073 14.952,15.3152073 14.925,14.4022073 C15.147,14.2012073 15.356,13.9352073 15.573,13.5792073 C15.643,13.4642073 15.713,13.3562073 15.781,13.2482073 C16.003,12.9002073 16.232,12.5422073 16.428,12.0582073 C16.621,11.9732073 16.797,11.8122073 16.907,11.6122073 C17.316,10.8612073 17.554,9.65720726 17.386,9.18120726 C17.318,8.99020726 17.179,8.85020726 16.987,8.77620726 C16.988,6.53720726 15.996,4.81820726 14.31,4.15020726 C13.974,4.00220726 13.413,3.78120726 12.648,3.56920726 C12.327,3.48220726 12.139,3.32720726 12.117,3.27920726 C12.102,3.19020726 12.052,3.11020726 11.978,3.05920726 C11.904,3.00720726 11.811,2.98920726 11.723,3.00620726 C11.422,3.06620726 11.158,3.47320726 11.053,3.73120726 C11.007,3.84620726 10.979,3.95720726 10.969,4.06320726 C10.396,4.13920726 9.827,4.41120726 9.665,4.99920726 C9.643,5.05920726 9.637,5.12520726 9.649,5.18620726 C9.035,5.87120726 8.448,6.98820726 8.449,8.75920726 C8.233,8.82820726 8.077,8.97320726 8.004,9.18020726 C7.836,9.65520726 8.073,10.8582073 8.482,11.6092073 C8.599,11.8242073 8.793,11.9902073 9.002,12.0682073 C9.193,12.5462073 9.41,12.8882073 9.639,13.2492073 C9.704,13.3512073 9.77,13.4552073 9.837,13.5652073 C10.068,13.9442073 10.301,14.2262073 10.562,14.4392073 C10.511,15.4252073 10.265,16.0922073 10.051,16.1562073 L9.717,16.2542073 C7.212,16.9832073 4.61,17.8882073 4.303,19.0732073 C4.044,20.0722073 4.002,20.7102073 4,20.7582073 C4,21.6402073 4.717,22.3572073 5.598,22.3572073 L19.834,22.3572073 C20.716,22.3572073 21.433,21.6402073 21.433,20.7582073 C21.434,20.3932073 21.377,20.0942073 21.117,19.0732073 Z M19.835,21.6902073 L5.599,21.6902073 C5.085,21.6902073 4.667,21.2722073 4.666,20.7792073 C4.666,20.7732073 4.708,20.1722073 4.949,19.2402073 C5.117,18.5912073 6.784,17.8012073 9.904,16.8942073 L10.243,16.7952073 C11.084,16.5432073 11.217,14.9572073 11.235,14.2872073 C11.238,14.1742073 11.184,14.0682073 11.092,14.0042073 C10.849,13.8362073 10.631,13.5862073 10.407,13.2182073 C10.338,13.1052073 10.27,12.9972073 10.202,12.8912073 C9.957,12.5052073 9.745,12.1712073 9.564,11.6702073 C9.518,11.5422073 9.396,11.4542073 9.261,11.4482073 C9.224,11.4472073 9.123,11.3862073 9.067,11.2852073 C8.701,10.6142073 8.553,9.61520726 8.63,9.39320726 C8.638,9.38620726 8.677,9.35820726 8.776,9.35820726 L8.778,9.35820726 C8.867,9.35820726 8.959,9.33620726 9.024,9.27020726 C9.089,9.20520726 9.124,9.12620726 9.12,9.03520726 C9.046,6.99920726 9.796,5.90320726 10.439,5.34220726 C10.55,5.24620726 10.584,5.08820726 10.524,4.95420726 C10.518,4.94020726 10.51,4.92720726 10.503,4.91420726 C10.781,4.71720726 11.241,4.71020726 11.309,4.71020726 L11.344,4.71020726 C11.465,4.71820726 11.579,4.66020726 11.644,4.55820726 C11.717,4.44520726 11.714,4.29920726 11.638,4.18820726 C11.634,4.18220726 11.626,4.15320726 11.639,4.09020726 C11.656,4.00720726 11.697,3.91920726 11.743,3.84320726 C11.946,4.01920726 12.225,4.14520726 12.472,4.21420726 C13.199,4.41520726 13.727,4.62320726 14.054,4.76720726 C15.57,5.36720726 16.395,6.92420726 16.317,9.03720726 C16.314,9.12620726 16.346,9.21320726 16.408,9.27820726 C16.469,9.34320726 16.554,9.38120726 16.644,9.38220726 C16.717,9.38420726 16.753,9.39920726 16.757,9.40420726 C16.836,9.62820726 16.688,10.6232073 16.322,11.2942073 C16.267,11.3942073 16.169,11.4542073 16.129,11.4592073 C16.007,11.4762073 15.905,11.5582073 15.863,11.6732073 C15.679,12.1702073 15.456,12.5202073 15.219,12.8902073 C15.148,13.0012073 15.076,13.1142073 15.003,13.2332073 C14.791,13.5822073 14.588,13.8282073 14.385,13.9862073 C14.302,14.0502073 14.255,14.1482073 14.255,14.2522073 C14.261,15.0622073 14.386,16.4692073 15.164,16.7832073 C15.646,16.9782073 16.235,17.1602073 16.858,17.3512073 C18.372,17.8172073 20.256,18.3972073 20.47,19.2382073 C20.727,20.2462073 20.766,20.4792073 20.766,20.7572073 C20.767,21.2712073 20.349,21.6902073 19.835,21.6902073 Z" id="Shape"></path>
        </g>
    </g>
</svg>