<?xml version="1.0" encoding="UTF-8"?>
<svg width="26px" height="26px" viewBox="0 0 26 26" version="1.1" xmlns="http://www.w3.org/2000/svg" xmlns:xlink="http://www.w3.org/1999/xlink">
    <!-- Generator: Sketch 41.1 (35376) - http://www.bohemiancoding.com/sketch -->
    <title>icon-Github-light</title>
    <desc>Created with Sketch.</desc>
    <defs></defs>
    <g id="Page-1" stroke="none" stroke-width="1" fill="none" fill-rule="evenodd">
        <g id="icon-Github-light" fill="#FFFFFF">
            <path d="M4,13.0362415 C4,17.0277516 6.5785,20.4144363 10.1554375,21.6094045 C10.6054375,21.6924198 10.7696875,21.4134434 10.7696875,21.173998 C10.7696875,20.9594005 10.7618125,20.3912822 10.7573125,19.637368 C8.253625,20.1834618 7.7254375,18.4260228 7.7254375,18.4260228 C7.3165,17.3824019 6.7264375,17.104555 6.7264375,17.104555 C5.909125,16.5437781 6.7883125,16.5550728 6.7883125,16.5550728 C7.691125,16.6188873 8.1664375,17.4863121 8.1664375,17.4863121 C8.9696875,18.8670768 10.273,18.4683775 10.786,18.2368383 C10.8675625,17.6529078 11.1004375,17.2547733 11.3575,17.0288811 C9.3589375,16.8007304 7.258,16.0259211 7.258,12.5635626 C7.258,11.5769796 7.6084375,10.7705455 8.1844375,10.1386128 C8.091625,9.90989725 7.7828125,8.99164675 8.2721875,7.74754675 C8.2721875,7.74754675 9.0281875,7.50471325 10.7471875,8.67370375 C11.4655,8.47322463 12.235,8.37326763 13.0005625,8.36931438 C13.765,8.37326763 14.5350625,8.47322463 15.2539375,8.67370375 C16.9718125,7.50471325 17.726125,7.74754675 17.726125,7.74754675 C18.2171875,8.99164675 17.908375,9.90989725 17.8155625,10.1386128 C18.3926875,10.7705455 18.740875,11.5769796 18.740875,12.5635626 C18.740875,16.034392 16.6365625,16.7984714 14.6318125,17.0221045 C14.9546875,17.3010809 15.2426875,17.8522574 15.2426875,18.6953988 C15.2426875,19.9033559 15.2314375,20.8775148 15.2314375,21.173998 C15.2314375,21.4157024 15.3934375,21.6969378 15.8501875,21.608275 C19.42375,20.4110478 22,17.0266221 22,13.0362415 C22,8.0451595 17.97025,4 12.9994375,4 C8.02975,4 4,8.0451595 4,13.0362415 Z" id="Github"></path>
        </g>
    </g>
</svg>