<?xml version="1.0" encoding="UTF-8"?>
<svg width="26px" height="26px" viewBox="0 0 26 26" version="1.1" xmlns="http://www.w3.org/2000/svg" xmlns:xlink="http://www.w3.org/1999/xlink">
    <!-- Generator: Sketch 41.1 (35376) - http://www.bohemiancoding.com/sketch -->
    <title>icon-LinkedIn-dark</title>
    <desc>Created with Sketch.</desc>
    <defs></defs>
    <g id="Page-1" stroke="none" stroke-width="1" fill="none" fill-rule="evenodd">
        <g id="icon-LinkedIn-dark" fill="#000000">
            <path d="M18.2427682,20.4545455 L18.2427682,15.0216545 C18.2427682,13.599603 17.6550446,12.628808 16.3626528,12.628808 C15.3741183,12.628808 14.8243769,13.2839215 14.5684971,13.9152845 C14.4725422,14.1419026 14.4875354,14.4575841 14.4875354,14.7732656 L14.4875354,20.4545455 L10.7652869,20.4545455 C10.7652869,20.4545455 10.8132644,10.8307091 10.7652869,9.95590452 L14.4875354,9.95590452 L14.4875354,11.6035847 C14.707432,10.8831575 15.8968721,9.85496586 17.7949789,9.85496586 C20.1498707,9.85496586 22,11.3650917 22,14.6169093 L22,20.4545455 L18.2427682,20.4545455 Z M7.00105841,8.64270861 L6.97706948,8.64270861 C5.77763409,8.64270861 5,7.84014518 5,6.82283891 C5,5.78574039 5.80062311,5 7.02404743,5 C8.24647223,5 8.99811834,5.78376143 9.02210727,6.81987009 C9.02210727,7.83717636 8.24647223,8.64270861 7.00105841,8.64270861 L7.00105841,8.64270861 L7.00105841,8.64270861 Z M5.42879834,9.95590452 L8.74223898,9.95590452 L8.74223898,20.4545455 L5.42879834,20.4545455 L5.42879834,9.95590452 L5.42879834,9.95590452 Z" id="LinkedIn"></path>
        </g>
    </g>
</svg>