<?xml version="1.0" encoding="UTF-8"?>
<svg width="26px" height="26px" viewBox="0 0 26 26" version="1.1" xmlns="http://www.w3.org/2000/svg" xmlns:xlink="http://www.w3.org/1999/xlink">
    <!-- Generator: Sketch 41.1 (35376) - http://www.bohemiancoding.com/sketch -->
    <title>icon-contact</title>
    <desc>Created with Sketch.</desc>
    <defs></defs>
    <g id="Page-1" stroke="none" stroke-width="1" fill="none" fill-rule="evenodd">
        <g id="icon-contact" fill="#FFFFFF">
            <path d="M21.337,5.686 L4.663,5.686 C3.813,5.686 3.122,6.378 3.122,7.228 L3.122,17.914 C3.122,18.764 3.813,19.455 4.663,19.455 L6.357,19.455 C6.525,19.455 6.681,19.546 6.765,19.692 L7.931,21.738 C8.131,22.09 8.492,22.304 8.897,22.313 L8.922,22.313 C9.317,22.313 9.676,22.115 9.886,21.779 L11.206,19.675 C11.293,19.537 11.441,19.455 11.604,19.455 L21.337,19.455 C22.187,19.455 22.879,18.763 22.879,17.914 L22.879,7.228 C22.878,6.378 22.187,5.686 21.337,5.686 Z M22.208,17.914 C22.208,18.395 21.817,18.786 21.336,18.786 L11.603,18.786 C11.209,18.786 10.848,18.985 10.638,19.32 L9.318,21.424 C9.228,21.567 9.069,21.657 8.91,21.644 C8.741,21.64 8.596,21.554 8.512,21.407 L7.346,19.361 C7.144,19.006 6.764,18.786 6.356,18.786 L4.663,18.786 C4.183,18.786 3.792,18.395 3.792,17.914 L3.792,7.228 C3.792,6.747 4.183,6.356 4.663,6.356 L21.337,6.356 C21.818,6.356 22.209,6.747 22.209,7.228 L22.209,17.914 L22.208,17.914 Z" id="Shape"></path>
            <path d="M18.801,9.038 L7.199,9.038 C7.014,9.038 6.864,9.188 6.864,9.373 C6.864,9.558 7.014,9.708 7.199,9.708 L18.8,9.708 C18.985,9.708 19.135,9.558 19.135,9.373 C19.136,9.188 18.986,9.038 18.801,9.038 Z" id="Shape"></path>
            <path d="M18.801,12.236 L7.199,12.236 C7.014,12.236 6.864,12.386 6.864,12.571 C6.864,12.756 7.014,12.906 7.199,12.906 L18.8,12.906 C18.985,12.906 19.135,12.756 19.135,12.571 C19.135,12.386 18.986,12.236 18.801,12.236 Z" id="Shape"></path>
            <path d="M18.801,15.434 L7.199,15.434 C7.014,15.434 6.864,15.584 6.864,15.769 C6.864,15.954 7.014,16.104 7.199,16.104 L18.8,16.104 C18.985,16.104 19.135,15.954 19.135,15.769 C19.136,15.584 18.986,15.434 18.801,15.434 Z" id="Shape"></path>
        </g>
    </g>
</svg>