<?xml version="1.0" encoding="UTF-8"?>
<svg width="26px" height="26px" viewBox="0 0 26 26" version="1.1" xmlns="http://www.w3.org/2000/svg" xmlns:xlink="http://www.w3.org/1999/xlink">
    <!-- Generator: Sketch 41.1 (35376) - http://www.bohemiancoding.com/sketch -->
    <title>icon-contact</title>
    <desc>Created with Sketch.</desc>
    <defs></defs>
    <g id="Page-1" stroke="none" stroke-width="1" fill="none" fill-rule="evenodd">
        <g id="icon-contact" fill="#000000">
            <g id="Group" transform="translate(3.000000, 5.000000)">
                <path d="M18.337,0.686 L1.663,0.686 C0.813,0.686 0.122,1.378 0.122,2.228 L0.122,12.914 C0.122,13.764 0.813,14.455 1.663,14.455 L3.357,14.455 C3.525,14.455 3.681,14.546 3.765,14.692 L4.931,16.738 C5.131,17.09 5.492,17.304 5.897,17.313 L5.922,17.313 C6.317,17.313 6.676,17.115 6.886,16.779 L8.206,14.675 C8.293,14.537 8.441,14.455 8.604,14.455 L18.337,14.455 C19.187,14.455 19.879,13.763 19.879,12.914 L19.879,2.228 C19.878,1.378 19.187,0.686 18.337,0.686 Z M19.208,12.914 C19.208,13.395 18.817,13.786 18.336,13.786 L8.603,13.786 C8.209,13.786 7.848,13.985 7.638,14.32 L6.318,16.424 C6.228,16.567 6.069,16.657 5.91,16.644 C5.741,16.64 5.596,16.554 5.512,16.407 L4.346,14.361 C4.144,14.006 3.764,13.786 3.356,13.786 L1.663,13.786 C1.183,13.786 0.792,13.395 0.792,12.914 L0.792,2.228 C0.792,1.747 1.183,1.356 1.663,1.356 L18.337,1.356 C18.818,1.356 19.209,1.747 19.209,2.228 L19.209,12.914 L19.208,12.914 Z" id="Shape"></path>
                <path d="M15.801,4.038 L4.199,4.038 C4.014,4.038 3.864,4.188 3.864,4.373 C3.864,4.558 4.014,4.708 4.199,4.708 L15.8,4.708 C15.985,4.708 16.135,4.558 16.135,4.373 C16.136,4.188 15.986,4.038 15.801,4.038 Z" id="Shape"></path>
                <path d="M15.801,7.236 L4.199,7.236 C4.014,7.236 3.864,7.386 3.864,7.571 C3.864,7.756 4.014,7.906 4.199,7.906 L15.8,7.906 C15.985,7.906 16.135,7.756 16.135,7.571 C16.135,7.386 15.986,7.236 15.801,7.236 Z" id="Shape"></path>
                <path d="M15.801,10.434 L4.199,10.434 C4.014,10.434 3.864,10.584 3.864,10.769 C3.864,10.954 4.014,11.104 4.199,11.104 L15.8,11.104 C15.985,11.104 16.135,10.954 16.135,10.769 C16.136,10.584 15.986,10.434 15.801,10.434 Z" id="Shape"></path>
            </g>
        </g>
    </g>
</svg>