<?xml version="1.0" encoding="UTF-8"?>
<svg width="26px" height="26px" viewBox="0 0 26 26" version="1.1" xmlns="http://www.w3.org/2000/svg" xmlns:xlink="http://www.w3.org/1999/xlink">
    <!-- Generator: Sketch 41.1 (35376) - http://www.bohemiancoding.com/sketch -->
    <title>icon-Instagram-dark</title>
    <desc>Created with Sketch.</desc>
    <defs></defs>
    <g id="Page-1" stroke="none" stroke-width="1" fill="none" fill-rule="evenodd">
        <g id="icon-Instagram-dark" fill="#000000">
            <path d="M13.000018,4 C10.5557466,4 10.2492572,4.0103605 9.28931162,4.05416013 C8.33136663,4.09785213 7.67712438,4.25000763 7.104658,4.47250638 C6.5128285,4.70247175 6.01092025,5.01021137 5.510548,5.510548 C5.01021137,6.01092025 4.70247175,6.5128285 4.47250638,7.104658 C4.25000763,7.67712438 4.09785213,8.33136663 4.05416013,9.28931162 C4.0103605,10.2492572 4,10.5557466 4,13.000018 C4,15.4442534 4.0103605,15.7507428 4.05416013,16.7106884 C4.09785213,17.6686334 4.25000763,18.3228756 4.47250638,18.895342 C4.70247175,19.4871715 5.01021137,19.9890798 5.510548,20.489452 C6.01092025,20.9897886 6.5128285,21.2975282 7.104658,21.5275296 C7.67712438,21.7499924 8.33136663,21.9021479 9.28931162,21.9458399 C10.2492572,21.9896395 10.5557466,22 13.000018,22 C15.4442534,22 15.7507428,21.9896395 16.7106884,21.9458399 C17.6686334,21.9021479 18.3228756,21.7499924 18.895342,21.5275296 C19.4871715,21.2975282 19.9890798,20.9897886 20.489452,20.489452 C20.9897886,19.9890798 21.2975282,19.4871715 21.5275296,18.895342 C21.7499924,18.3228756 21.9021479,17.6686334 21.9458399,16.7106884 C21.9896395,15.7507428 22,15.4442534 22,13.000018 C22,10.5557466 21.9896395,10.2492572 21.9458399,9.28931162 C21.9021479,8.33136663 21.7499924,7.67712438 21.5275296,7.104658 C21.2975282,6.5128285 20.9897886,6.01092025 20.489452,5.510548 C19.9890798,5.01021137 19.4871715,4.70247175 18.895342,4.47250638 C18.3228756,4.25000763 17.6686334,4.09785213 16.7106884,4.05416013 C15.7507428,4.0103605 15.4442534,4 13.000018,4 Z M13.000018,5.62161887 C15.4030975,5.62161887 15.6877585,5.63080037 16.6367725,5.67409975 C17.5142635,5.71411225 17.9908068,5.86072975 18.3079424,5.98398287 C18.7280391,6.14724887 19.0278482,6.34227475 19.3427688,6.65723125 C19.6577252,6.97215175 19.8527511,7.27196087 20.0160171,7.69205763 C20.1392703,8.00919325 20.2858878,8.4857365 20.3259003,9.3632275 C20.3691996,10.3122415 20.3783811,10.5969025 20.3783811,13.000018 C20.3783811,15.4030975 20.3691996,15.6877585 20.3259003,16.6367725 C20.2858878,17.5142635 20.1392703,17.9908068 20.0160171,18.3079424 C19.8527511,18.7280391 19.6577252,19.0278482 19.3427688,19.3427688 C19.0278482,19.6577252 18.7280391,19.8527511 18.3079424,20.0160171 C17.9908068,20.1392703 17.5142635,20.2858878 16.6367725,20.3259003 C15.6879014,20.3691996 15.403276,20.3783811 13.000018,20.3783811 C10.596724,20.3783811 10.3121342,20.3691996 9.3632275,20.3259003 C8.4857365,20.2858878 8.00919325,20.1392703 7.69205763,20.0160171 C7.27196087,19.8527511 6.97215175,19.6577252 6.65723125,19.3427688 C6.34231037,19.0278482 6.14724887,18.7280391 5.98398287,18.3079424 C5.86072975,17.9908068 5.71411225,17.5142635 5.67409975,16.6367725 C5.63080037,15.6877585 5.62161887,15.4030975 5.62161887,13.000018 C5.62161887,10.5969025 5.63080037,10.3122415 5.67409975,9.3632275 C5.71411225,8.4857365 5.86072975,8.00919325 5.98398287,7.69205763 C6.14724887,7.27196087 6.34227475,6.97215175 6.65723125,6.65723125 C6.97215175,6.34227475 7.27196087,6.14724887 7.69205763,5.98398287 C8.00919325,5.86072975 8.4857365,5.71411225 9.3632275,5.67409975 C10.3122415,5.63080037 10.5969025,5.62161887 13.000018,5.62161887 Z M13.000018,8.37838112 C10.447534,8.37838112 8.37838112,10.447534 8.37838112,13.000018 C8.37838112,15.552466 10.447534,17.6216189 13.000018,17.6216189 C15.552466,17.6216189 17.6216189,15.552466 17.6216189,13.000018 C17.6216189,10.447534 15.552466,8.37838112 13.000018,8.37838112 Z M13.000018,16 C11.3431379,16 10,14.6568621 10,13.000018 C10,11.3431379 11.3431379,10 13.000018,10 C14.6568621,10 16,11.3431379 16,13.000018 C16,14.6568621 14.6568621,16 13.000018,16 Z M18.8842315,8.195788 C18.8842315,8.79226187 18.4006859,9.2757715 17.804212,9.2757715 C17.2077738,9.2757715 16.7242285,8.79226187 16.7242285,8.195788 C16.7242285,7.59931412 17.2077738,7.1157685 17.804212,7.1157685 C18.4006859,7.1157685 18.8842315,7.59931412 18.8842315,8.195788 Z" id="Instagram"></path>
        </g>
    </g>
</svg>