<?xml version="1.0" encoding="UTF-8"?>
<svg width="26px" height="26px" viewBox="0 0 26 26" version="1.1" xmlns="http://www.w3.org/2000/svg" xmlns:xlink="http://www.w3.org/1999/xlink">
    <!-- Generator: Sketch 41.1 (35376) - http://www.bohemiancoding.com/sketch -->
    <title>icon-phone</title>
    <desc>Created with Sketch.</desc>
    <defs></defs>
    <g id="Page-1" stroke="none" stroke-width="1" fill="none" fill-rule="evenodd">
        <g id="icon-phone" fill="#000000">
            <g id="Group" transform="translate(3.000000, 3.000000)">
                <path d="M6.971,7.166 C7.426,6.711 7.677,6.103 7.677,5.456 C7.677,4.808 7.426,4.201 6.971,3.746 L5.543,2.318 C5.088,1.863 4.48,1.612 3.833,1.612 C3.185,1.612 2.578,1.863 2.123,2.318 L1.634,2.807 L1.634,2.807 L1.418,3.023 C-0.133,4.574 -0.369,8.953 5.339,14.661 C8.988,18.31 12.094,19.53 14.265,19.53 C15.49,19.53 16.417,19.142 16.976,18.582 L17.681,17.877 C18.624,16.934 18.624,15.4 17.681,14.456 L16.253,13.028 C15.31,12.085 13.776,12.086 12.832,13.028 L12.14,13.72 C11.8,14.06 11.346,14.247 10.862,14.247 C10.378,14.247 9.924,14.06 9.584,13.72 L6.277,10.413 C5.573,9.708 5.573,8.561 6.277,7.857 L6.971,7.166 Z M5.847,10.847 L9.154,14.154 C9.609,14.609 10.216,14.86 10.864,14.86 C11.512,14.86 12.119,14.609 12.574,14.154 L13.266,13.462 C13.971,12.758 15.117,12.757 15.822,13.462 L17.25,14.89 C17.954,15.595 17.954,16.742 17.25,17.446 L16.552,18.143 L16.437,18.251 C15.008,19.478 10.986,19.444 5.771,14.23 C2.657,11.116 1.592,8.66 1.247,7.148 C0.824,5.293 1.281,4.024 1.85,3.455 L2.555,2.75 C2.895,2.41 3.349,2.223 3.833,2.223 C4.317,2.223 4.771,2.41 5.111,2.75 L6.539,4.178 C6.879,4.518 7.066,4.972 7.066,5.456 C7.066,5.94 6.878,6.394 6.538,6.734 L5.847,7.426 C4.904,8.369 4.904,9.903 5.847,10.847 Z" id="Shape"></path>
                <path d="M19.215,10.26 L19.222,10.26 C19.388,10.26 19.524,10.128 19.528,9.962 C19.589,7.367 18.635,4.951 16.842,3.158 C15.049,1.366 12.631,0.417 10.039,0.472 C9.87,0.476 9.737,0.616 9.741,0.785 C9.745,0.954 9.884,1.08 10.054,1.083 C12.477,1.026 14.737,1.916 16.411,3.59 C18.084,5.263 18.975,7.521 18.918,9.947 C18.912,10.116 19.046,10.256 19.215,10.26 Z" id="Shape"></path>
                <path d="M9.838,4.13 C11.491,4.088 13.026,4.697 14.165,5.836 C15.304,6.975 15.909,8.511 15.871,10.162 C15.867,10.331 16.001,10.471 16.169,10.475 L16.176,10.475 C16.342,10.475 16.478,10.343 16.482,10.177 C16.525,8.357 15.856,6.662 14.597,5.404 C13.339,4.146 11.633,3.473 9.824,3.519 C9.655,3.523 9.522,3.663 9.526,3.832 C9.529,4 9.673,4.126 9.838,4.13 Z" id="Shape"></path>
                <path d="M9.817,7.105 C10.666,7.082 11.444,7.395 12.026,7.975 C12.607,8.556 12.916,9.34 12.896,10.184 C12.892,10.353 13.026,10.493 13.194,10.497 L13.201,10.497 C13.367,10.497 13.503,10.365 13.507,10.199 C13.531,9.187 13.158,8.244 12.458,7.544 C11.758,6.844 10.824,6.476 9.803,6.495 C9.634,6.499 9.501,6.639 9.505,6.808 C9.508,6.974 9.652,7.108 9.817,7.105 Z" id="Shape"></path>
            </g>
        </g>
    </g>
</svg>