<?xml version="1.0" encoding="UTF-8"?>
<svg width="26px" height="26px" viewBox="0 0 26 26" version="1.1" xmlns="http://www.w3.org/2000/svg" xmlns:xlink="http://www.w3.org/1999/xlink">
    <!-- Generator: Sketch 41.1 (35376) - http://www.bohemiancoding.com/sketch -->
    <title>icon-Medium-dark</title>
    <desc>Created with Sketch.</desc>
    <defs></defs>
    <g id="Page-1" stroke="none" stroke-width="1" fill="none" fill-rule="evenodd">
        <g id="icon-Medium-dark" fill="#000000">
            <g id="Group-2" transform="translate(4.000000, 6.000000)">
                <path d="M18.3626945,2.86712407 C18.3591297,2.86429357 18.3562778,2.86057853 18.3518218,2.85845566 L18.3454051,2.85527134 L12.7183156,0.0628018168 C12.6803501,0.0438728184 12.640424,0.0311355487 12.5999631,0.0208749701 C12.5491642,0.00796079369 12.4972959,0 12.4452493,0 C12.2297551,0 12.0153304,0.107382262 11.8991168,0.294549366 L8.65957447,5.51966052 L12.7250887,12.076524 L18.379984,2.95628496 C18.3986993,2.92585704 18.3897872,2.88835286 18.3626945,2.86712407" id="Fill-53"></path>
                <polyline id="Fill-54" points="7.08510638 4.32978723 7.08510638 10.2775616 12.4116805 12.9208989 7.08510638 4.32978723"></polyline>
                <path d="M12.9893617,13.0675544 L17.3739285,15.2433277 C17.9444801,15.5265551 18.4070173,15.3282429 18.4070173,14.8007076 L18.4070173,4.32978723 L12.9893617,13.0675544" id="Fill-55"></path>
                <path d="M6.18445122,2.79989959 L0.688725811,0.0725316759 C0.589445203,0.0233516616 0.494977118,0 0.409421117,0 C0.168794862,0 0,0.18486732 0,0.494984459 L0,12.2716519 C0,12.5868993 0.232427138,12.9601721 0.516544359,13.1011666 L5.35705341,15.5032034 C5.4811096,15.5647669 5.59928382,15.5939565 5.70605059,15.5939565 C6.00692251,15.5939565 6.21796067,15.3629166 6.21796067,14.9751375 L6.21796067,2.85350227 C6.21796067,2.83085824 6.20494903,2.80998327 6.18445122,2.79989959" id="Fill-56"></path>
            </g>
        </g>
    </g>
</svg>