<?xml version="1.0" encoding="UTF-8"?>
<svg width="26px" height="26px" viewBox="0 0 26 26" version="1.1" xmlns="http://www.w3.org/2000/svg" xmlns:xlink="http://www.w3.org/1999/xlink">
    <!-- Generator: Sketch 41.1 (35376) - http://www.bohemiancoding.com/sketch -->
    <title>icon-Twitter-light</title>
    <desc>Created with Sketch.</desc>
    <defs></defs>
    <g id="Page-1" stroke="none" stroke-width="1" fill="none" fill-rule="evenodd">
        <g id="icon-Twitter-light" fill="#FFFFFF">
            <path d="M23,6.87438285 C22.3018723,7.19230788 21.5502141,7.40730712 20.7617537,7.50337073 C21.5669424,7.00932956 22.1847741,6.22595402 22.4758466,5.29276506 C21.7219583,5.75021065 20.888889,6.08300238 19.9989437,6.26140604 C19.2896638,5.48489227 18.2759287,5 17.1540179,5 C15.0027587,5 13.2574397,6.78975567 13.2574397,8.99693025 C13.2574397,9.31028063 13.2908963,9.61448171 13.3578095,9.90724677 C10.1180958,9.74027913 7.24640492,8.150656 5.32265056,5.72962573 C4.98696965,6.32201762 4.79515158,7.00932956 4.79515158,7.74124242 C4.79515158,9.12730231 5.48324252,10.3509692 6.5293184,11.068015 C5.89141279,11.0485736 5.28919394,10.8667389 4.76281042,10.5693991 L4.76281042,10.6185747 C4.76281042,12.5558567 6.10665033,14.1717829 7.89100208,14.5377391 C7.56424246,14.6315156 7.21963946,14.6784037 6.86388465,14.6784037 C6.61295996,14.6784037 6.36761177,14.6543881 6.13006981,14.6074996 C6.62634269,16.1948356 8.06497638,17.3510292 9.77126267,17.3819069 C8.4374595,18.4546165 6.75570815,19.0938968 4.93009315,19.0938968 C4.61560119,19.0938968 4.30445481,19.075599 4,19.0390034 C5.72524512,20.171181 7.77501896,20.8333333 9.9753476,20.8333333 C17.1462112,20.8333333 21.0662089,14.7435899 21.0662089,9.4612376 C21.0662089,9.28740819 21.0628633,9.11357877 21.0561718,8.94318044 C21.8178671,8.37937879 22.4791922,7.67605619 23,6.87438285" id="Twitter"></path>
        </g>
    </g>
</svg>