<?xml version="1.0" encoding="UTF-8"?>
<svg width="44px" height="40px" viewBox="0 0 44 40" version="1.1" xmlns="http://www.w3.org/2000/svg" xmlns:xlink="http://www.w3.org/1999/xlink">
    <!-- Generator: Sketch 41 (35326) - http://www.bohemiancoding.com/sketch -->
    <title>LinkedIn</title>
    <desc>Created with Sketch.</desc>
    <defs></defs>
    <g id="Page-1" stroke="none" stroke-width="1" fill="none" fill-rule="evenodd">
        <g id="LinkedIn" fill="#FFFFFF">
            <g id="Icons">
                <g id="Black">
                    <path d="M34.2754,40 L34.2754,25.9384 C34.2754,22.257796 32.754233,19.74515 29.409219,19.74515 C26.850659,19.74515 25.427799,21.440738 24.765522,23.074854 C24.517168,23.661395 24.555974,24.478453 24.555974,25.295511 L24.555974,40 L14.921919,40 C14.921919,40 15.046096,15.091247 14.921919,12.827047 L24.555974,12.827047 L24.555974,17.091631 C25.125118,15.226996 28.203669,12.565794 33.116416,12.565794 C39.21143,12.565794 44,16.474355 44,24.890824 L44,40 L34.2754,40 Z M5.17921,9.428187 L5.117121,9.428187 C2.0127,9.428187 0,7.350964 0,4.717936 C0,2.033681 2.072201,0 5.238711,0 C8.402634,0 10.348071,2.028559 10.41016,4.710252 C10.41016,7.34328 8.402634,9.428187 5.17921,9.428187 L5.17921,9.428187 L5.17921,9.428187 Z M1.109831,12.827047 L9.685795,12.827047 L9.685795,40 L1.109831,40 L1.109831,12.827047 L1.109831,12.827047 Z" id="LinkedIn"></path>
                </g>
            </g>
        </g>
    </g>
</svg>