<svg width="26" height="26" viewBox="0 0 26 26" xmlns="http://www.w3.org/2000/svg"><title>icon-portifolio</title><g fill-rule="evenodd"><path d="M7.177 3.239c-.998 0-1.811.782-1.811 1.743v16.274c0 .961.812 1.744 1.811 1.744h11.646c.998 0 1.81-.782 1.81-1.744V9.261a1.7 1.7 0 0 0-.53-1.232L15.661 3.75a1.834 1.834 0 0 0-1.28-.51H7.177v-.001zm8.151 1.105l4.158 4.004h-3.315c-.465 0-.843-.364-.843-.811V4.344zm.843 4.653h3.753c.022.085.037.173.037.264v11.996c0 .605-.51 1.096-1.138 1.096H7.177c-.628 0-1.138-.492-1.138-1.096V4.983c0-.605.511-1.096 1.138-1.096h7.204c.094 0 .185.015.274.036v3.614c0 .805.68 1.46 1.516 1.46z"/><path d="M17.262 14.562H8.738a.335.335 0 1 0 0 .672h8.523a.335.335 0 1 0 .001-.672zm-8.86-3.012c0 .186.15.336.336.336h8.523a.335.335 0 1 0 0-.672H8.738a.337.337 0 0 0-.336.336zm8.86 6.359H8.738a.335.335 0 1 0 0 .672h8.523a.335.335 0 1 0 .001-.672z"/></g></svg>