<svg width="26" height="26" viewBox="0 0 26 26" xmlns="http://www.w3.org/2000/svg"><title>icon-home</title><path d="M4.063 14.144h1.012c.228 0 .415.171.415.381v6.41c0 .586.52 1.065 1.16 1.065h3.24c.639 0 1.16-.479 1.16-1.066v-3.301c0-.268.236-.485.528-.485h2.844c.29 0 .527.217.527.485v3.301c0 .587.521 1.066 1.16 1.066h3.24c.64 0 1.16-.479 1.16-1.066v-6.409c0-.21.186-.381.415-.381h1.013c.433 0 .806-.228.976-.594a.904.904 0 0 0-.212-1.057L14.379 4.54A1.98 1.98 0 0 0 13 4a1.98 1.98 0 0 0-1.38.54L3.3 12.493a.904.904 0 0 0-.212 1.057c.17.366.543.594.976.594zm-.309-1.25l8.32-7.952a1.33 1.33 0 0 1 .925-.36c.353 0 .68.127.925.36l8.322 7.953a.364.364 0 0 1 .086.429.42.42 0 0 1-.395.24h-1.013c-.577 0-1.046.431-1.046.961v6.41c0 .267-.237.484-.528.484h-3.24c-.29 0-.528-.217-.528-.485v-3.301c0-.588-.52-1.066-1.16-1.066h-2.844c-.639 0-1.16.477-1.16 1.066v3.301c0 .268-.236.485-.527.485H6.65c-.291 0-.529-.217-.529-.485v-6.409c0-.53-.47-.961-1.046-.961H4.063a.42.42 0 0 1-.395-.24.362.362 0 0 1 .086-.43z" stroke="#000" stroke-width=".15" fill-rule="evenodd"/></svg>