<svg width="26" height="26" viewBox="0 0 26 26" xmlns="http://www.w3.org/2000/svg"><title>icon-LinkedIn-dark</title><path d="M18.243 20.455v-5.433c0-1.422-.588-2.393-1.88-2.393-.989 0-1.539.655-1.795 1.286-.095.227-.08.543-.08.858v5.682h-3.723s.048-9.624 0-10.5h3.723v1.649c.22-.72 1.409-1.749 3.307-1.749 2.355 0 4.205 1.51 4.205 4.762v5.838h-3.757zM7 8.643h-.024C5.777 8.643 5 7.84 5 6.823 5 5.786 5.8 5 7.024 5c1.222 0 1.974.784 1.998 1.82 0 1.017-.776 1.823-2.02 1.823zM5.43 9.956h3.313v10.499H5.43v-10.5z" fill-rule="evenodd"/></svg>