<svg width="26" height="26" viewBox="0 0 26 26" xmlns="http://www.w3.org/2000/svg"><title>icon-Medium-dark</title><path d="M22.363 8.867l-.011-.009-.007-.003-5.627-2.792A.629.629 0 0 0 16.445 6a.645.645 0 0 0-.546.295l-3.24 5.225 4.066 6.557 5.655-9.12a.068.068 0 0 0-.017-.09M11.085 10.33v5.948l5.327 2.643-5.327-8.591m5.905 8.738l4.384 2.175c.57.284 1.033.085 1.033-.442V10.33l-5.418 8.738M10.184 8.8L4.69 6.073A.634.634 0 0 0 4.409 6C4.17 6 4 6.185 4 6.495v11.777c0 .315.232.688.517.83l4.84 2.401a.786.786 0 0 0 .35.091c.3 0 .511-.231.511-.619V8.854a.06.06 0 0 0-.034-.054" fill-rule="evenodd"/></svg>