<svg width="26" height="26" viewBox="0 0 26 26" xmlns="http://www.w3.org/2000/svg"><title>icon-Github-dark</title><path d="M4 13.036a9.034 9.034 0 0 0 6.155 8.573c.45.083.615-.196.615-.435 0-.215-.008-.783-.013-1.537-2.503.546-3.032-1.211-3.032-1.211-.409-1.044-.999-1.321-.999-1.321-.817-.561.062-.55.062-.55.903.064 1.378.931 1.378.931.804 1.381 2.107.982 2.62.75.082-.583.314-.981.572-1.207-2-.228-4.1-1.003-4.1-4.465a3.5 3.5 0 0 1 .926-2.425c-.092-.23-.401-1.147.088-2.391 0 0 .756-.243 2.475.926a8.68 8.68 0 0 1 2.254-.305 8.618 8.618 0 0 1 2.253.305c1.718-1.17 2.472-.926 2.472-.926.491 1.244.182 2.162.09 2.39.577.633.925 1.439.925 2.426 0 3.47-2.104 4.234-4.11 4.458.324.28.612.83.612 1.673 0 1.208-.012 2.183-.012 2.479 0 .242.162.523.62.434A9.035 9.035 0 0 0 22 13.036C22 8.046 17.97 4 13 4s-9 4.045-9 9.036z" fill-rule="evenodd"/></svg>