<svg width="26" height="26" viewBox="0 0 26 26" xmlns="http://www.w3.org/2000/svg"><title>icon-phone</title><g fill-rule="evenodd"><path d="M9.971 10.166a2.403 2.403 0 0 0 .706-1.71c0-.648-.251-1.255-.706-1.71L8.543 5.318a2.403 2.403 0 0 0-1.71-.706c-.648 0-1.255.251-1.71.706l-.489.489-.216.216c-1.551 1.551-1.787 5.93 3.921 11.638 3.649 3.649 6.755 4.869 8.926 4.869 1.225 0 2.152-.388 2.711-.948l.705-.705a2.422 2.422 0 0 0 0-3.421l-1.428-1.428a2.423 2.423 0 0 0-3.421 0l-.692.692c-.34.34-.794.527-1.278.527s-.938-.187-1.278-.527l-3.307-3.307a1.81 1.81 0 0 1 0-2.556l.694-.691zm-1.124 3.681l3.307 3.307a2.401 2.401 0 0 0 1.71.706c.648 0 1.255-.251 1.71-.706l.692-.692a1.81 1.81 0 0 1 2.556 0l1.428 1.428a1.81 1.81 0 0 1 0 2.556l-.698.697-.115.108c-1.429 1.227-5.451 1.193-10.666-4.021-3.114-3.114-4.179-5.57-4.524-7.082-.423-1.855.034-3.124.603-3.693l.705-.705c.34-.34.794-.527 1.278-.527s.938.187 1.278.527l1.428 1.428c.34.34.527.794.527 1.278s-.188.938-.528 1.278l-.691.692a2.422 2.422 0 0 0 0 3.421zm13.368-.587h.007a.306.306 0 0 0 .306-.298c.061-2.595-.893-5.011-2.686-6.804-1.793-1.792-4.211-2.741-6.803-2.686a.305.305 0 0 0-.298.313.31.31 0 0 0 .313.298c2.423-.057 4.683.833 6.357 2.507 1.673 1.673 2.564 3.931 2.507 6.357a.303.303 0 0 0 .297.313z"/><path d="M12.838 7.13c1.653-.042 3.188.567 4.327 1.706 1.139 1.139 1.744 2.675 1.706 4.326a.306.306 0 0 0 .298.313h.007a.306.306 0 0 0 .306-.298c.043-1.82-.626-3.515-1.885-4.773-1.258-1.258-2.964-1.931-4.773-1.885a.305.305 0 0 0-.298.313c.003.168.147.294.312.298zm-.021 2.975a2.975 2.975 0 0 1 3.079 3.079.306.306 0 0 0 .298.313h.007a.306.306 0 0 0 .306-.298 3.595 3.595 0 0 0-1.049-2.655c-.7-.7-1.634-1.068-2.655-1.049a.305.305 0 0 0 .014.61z"/></g></svg>