<svg width="26" height="26" viewBox="0 0 26 26" xmlns="http://www.w3.org/2000/svg"><title>icon-contact</title><g fill="#FFF" fill-rule="evenodd"><path d="M21.337 5.686H4.663c-.85 0-1.541.692-1.541 1.542v10.686c0 .85.691 1.541 1.541 1.541h1.694c.168 0 .324.091.408.237l1.166 2.046c.2.352.561.566.966.575h.025c.395 0 .754-.198.964-.534l1.32-2.104a.467.467 0 0 1 .398-.22h9.733c.85 0 1.542-.692 1.542-1.541V7.228a1.545 1.545 0 0 0-1.542-1.542zm.871 12.228a.873.873 0 0 1-.872.872h-9.733c-.394 0-.755.199-.965.534l-1.32 2.104a.453.453 0 0 1-.408.22.461.461 0 0 1-.398-.237l-1.166-2.046a1.141 1.141 0 0 0-.99-.575H4.663a.873.873 0 0 1-.871-.872V7.228c0-.481.391-.872.871-.872h16.674c.481 0 .872.391.872.872v10.686h-.001z"/><path d="M18.801 9.038H7.199a.335.335 0 0 0 0 .67H18.8a.335.335 0 0 0 .001-.67zm0 3.198H7.199a.335.335 0 0 0 0 .67H18.8a.335.335 0 0 0 .001-.67zm0 3.198H7.199a.335.335 0 0 0 0 .67H18.8a.335.335 0 0 0 .001-.67z"/></g></svg>