<svg width="26" height="26" viewBox="0 0 26 26" xmlns="http://www.w3.org/2000/svg"><title>icon-Medium-light</title><path d="M21.88 8.792l-.011-.009-.006-.003-5.48-2.719A.612.612 0 0 0 16.118 6a.629.629 0 0 0-.531.287l-3.154 5.087 3.958 6.385 5.506-8.88a.066.066 0 0 0-.017-.087m-10.981 1.424v5.791l5.186 2.574-5.186-8.365m5.749 8.508l4.269 2.118c.555.276 1.006.083 1.006-.43V10.215l-5.275 8.508m-6.626-9.997L4.67 6.071A.618.618 0 0 0 4.399 6C4.164 6 4 6.18 4 6.482v11.467c0 .307.226.67.503.807l4.713 2.34a.77.77 0 0 0 .34.088c.293 0 .498-.225.498-.603V8.778a.058.058 0 0 0-.032-.052" fill="#FFF" fill-rule="evenodd"/></svg>