<svg width="26" height="26" viewBox="0 0 26 26" xmlns="http://www.w3.org/2000/svg"><title>icon-about</title><path d="M21.117 19.073c-.306-1.203-2.215-1.79-4.062-2.359-.61-.188-1.185-.365-1.64-.549-.26-.105-.463-.85-.49-1.763.222-.2.431-.467.648-.823.07-.115.14-.223.208-.33.222-.349.451-.707.647-1.19a1.04 1.04 0 0 0 .479-.447c.409-.75.647-1.955.479-2.43a.664.664 0 0 0-.399-.406c.001-2.239-.991-3.958-2.677-4.626a12.33 12.33 0 0 0-1.662-.58c-.321-.088-.509-.243-.531-.29a.335.335 0 0 0-.394-.274c-.301.06-.565.467-.67.725a1.2 1.2 0 0 0-.084.332c-.573.076-1.142.348-1.304.936a.352.352 0 0 0-.016.187c-.614.685-1.201 1.802-1.2 3.573a.667.667 0 0 0-.445.421c-.168.475.069 1.678.478 2.43.117.214.311.38.52.458.191.478.408.82.637 1.181.065.102.131.206.198.316.231.38.464.661.725.874-.051.986-.297 1.653-.511 1.717l-.334.098c-2.505.73-5.107 1.634-5.414 2.82-.259.998-.301 1.636-.303 1.684a1.6 1.6 0 0 0 1.598 1.6h14.236a1.6 1.6 0 0 0 1.599-1.6c.001-.365-.056-.664-.316-1.685zm-1.282 2.617H5.599a.93.93 0 0 1-.933-.91c0-.007.042-.608.283-1.54.168-.649 1.835-1.439 4.955-2.346l.339-.099c.841-.252.974-1.838.992-2.508a.334.334 0 0 0-.143-.283c-.243-.168-.461-.418-.685-.786a17.293 17.293 0 0 0-.205-.327c-.245-.386-.457-.72-.638-1.22a.34.34 0 0 0-.303-.223c-.037 0-.138-.062-.194-.163-.366-.67-.514-1.67-.437-1.892.008-.007.047-.035.146-.035h.002a.337.337 0 0 0 .246-.088.305.305 0 0 0 .096-.235C9.046 7 9.796 5.903 10.439 5.342a.333.333 0 0 0 .085-.388c-.006-.014-.014-.027-.021-.04.278-.197.738-.204.806-.204h.035a.334.334 0 0 0 .294-.522c-.004-.006-.012-.035.001-.098a.819.819 0 0 1 .104-.247c.203.176.482.302.729.371.727.201 1.255.41 1.582.553 1.516.6 2.341 2.157 2.263 4.27a.332.332 0 0 0 .327.345c.073.002.109.017.113.022.079.224-.069 1.22-.435 1.89-.055.1-.153.16-.193.165a.33.33 0 0 0-.266.214c-.184.497-.407.847-.644 1.217-.071.111-.143.224-.216.343-.212.35-.415.595-.618.753a.334.334 0 0 0-.13.266c.006.81.131 2.217.909 2.531.482.195 1.071.377 1.694.568 1.514.466 3.398 1.046 3.612 1.887.257 1.008.296 1.241.296 1.52a.932.932 0 0 1-.931.932z" fill-rule="evenodd"/></svg>